<svg xmlns="http://www.w3.org/2000/svg" xmlns:xlink="http://www.w3.org/1999/xlink" viewBox="0 0 512 512"><linearGradient id="a" x1="0" x2="512" y1="-16126" y2="-16126" gradientTransform="matrix(1 0 0 -1 0 -15870)" gradientUnits="userSpaceOnUse"><stop offset="0" stop-color="#00f1ff"/><stop offset=".231" stop-color="#00d8ff"/><stop offset=".514" stop-color="#00c0ff"/><stop offset=".777" stop-color="#00b2ff"/><stop offset="1" stop-color="#00adff"/></linearGradient><path fill="url(#a)" d="m512 256c0 141.386719-114.613281 256-256 256s-256-114.613281-256-256 114.613281-256 256-256 256 114.613281 256 256zm0 0"/><g fill="#fff"><path d="m413.621094 207.007812c-5.929688-2.152343-12.574219-.367187-16.625 4.472657-.226563.269531-23.996094 27.105469-75.269532 32.175781-7.675781.761719-13.523437 7.214844-13.523437 14.929688v.644531c0 5.699219 3.230469 10.90625 8.335937 13.4375 16.09375 7.984375 60.304688 37.179687 52.597657 65.667969-.253907.925781-.410157 1.855468-.480469 2.78125-23.34375 31.746093-60.949219 52.382812-103.285156 52.382812h-9.371094c-75.816406 0-137.5-61.683594-137.5-137.503906-.007812-36.722656 14.289062-71.253906 40.253906-97.222656 25.96875-25.972657 60.492188-40.273438 97.21875-40.273438h131.316406c2.660157 0 4.230469 1.519531 4.929688 2.425781.679688.882813 1.726562 2.738281 1.074219 5.226563-8.46875 32.300781-34.132813 56.53125-65.621094 63.980468-.722656-.109374-1.453125-.183593-2.207031-.183593-25.578125 0-40.246094-15.019531-40.246094-41.214844 0-8.285156-6.71875-15-15-15-8.285156 0-15 6.714844-15 15 0 17.015625 4.375 31.976563 12.738281 43.84375-38.523437.863281-69.605469 32.449219-69.605469 71.175781 0 54.050782 40.453126 99.378906 94.089844 105.4375 8.234375.929688 15.660156-4.988281 16.589844-13.222656.929688-8.230469-4.988281-15.65625-13.222656-16.585938-38.457032-4.347656-67.457032-36.859374-67.457032-75.628906 0-22.726562 18.492188-41.21875 41.21875-41.21875h37.59375c54.09375 0 101.445313-36.503906 115.148438-88.773437 2.855469-10.878907.542969-22.238281-6.34375-31.160157-6.914062-8.960937-17.367188-14.101562-28.679688-14.101562h-283.789062c-8.285156 0-15 6.714844-15 15v149.269531c0 .207031.023438.410157.03125.617188-.011719.871093-.03125 1.742187-.03125 2.613281 0 92.359375 75.140625 167.5 167.5 167.5h9.371094c87.191406 0 158.128906-70.9375 158.128906-158.128906v-44.265625c0-6.308594-3.949219-11.945313-9.878906-14.097657zm-295.121094-88.507812h41.757812c-8.035156 5.621094-15.640624 11.984375-22.71875 19.0625-7.070312 7.074219-13.425781 14.667969-19.039062 22.695312zm275 146.871094c0 10.894531-1.367188 21.476562-3.9375 31.582031-7.582031-12.207031-18.222656-22.621094-28.429688-30.808594 13.015626-4.109375 23.769532-9.265625 32.367188-14.367187zm0 0"/><path d="m338.066406 142.917969c0 7.136719-5.785156 12.921875-12.925781 12.921875-7.136719 0-12.921875-5.785156-12.921875-12.921875 0-7.140625 5.785156-12.925781 12.921875-12.925781 7.140625 0 12.925781 5.785156 12.925781 12.925781zm0 0"/></g></svg>